<svg width="17" height="19" viewBox="0 0 17 19" fill="none" xmlns="http://www.w3.org/2000/svg">
<path fill-rule="evenodd" clip-rule="evenodd" d="M10.4628 2.48424C10.4628 1.40092 9.58461 0.522705 8.50128 0.522705C7.41795 0.522705 6.53974 1.40092 6.53974 2.48424V7.53877H1.96154C0.878209 7.53877 0 8.41698 0 9.50031C0 10.5836 0.878209 11.4618 1.96154 11.4618H6.53974V16.5157C6.53974 17.599 7.41795 18.4772 8.50128 18.4772C9.5846 18.4772 10.4628 17.599 10.4628 16.5157V11.4618H15.0385C16.1218 11.4618 17 10.5836 17 9.50031C17 8.41698 16.1218 7.53877 15.0385 7.53877H10.4628V2.48424Z" fill="#022132"/>
</svg>
