<svg width="48" height="49" viewBox="0 0 48 49" fill="none" xmlns="http://www.w3.org/2000/svg">
<g clip-path="url(#clip0_516_177)">
<path d="M31.0304 11.4568H17.1663C13.7883 11.4568 11.0498 14.1952 11.0498 17.5733V31.4374C11.0498 34.8154 13.7883 37.5539 17.1663 37.5539H31.0304C34.4084 37.5539 37.1469 34.8154 37.1469 31.4374V17.5733C37.1469 14.1952 34.4084 11.4568 31.0304 11.4568Z" fill="url(#paint0_radial_516_177)"/>
<path d="M31.0304 11.4568H17.1663C13.7883 11.4568 11.0498 14.1952 11.0498 17.5733V31.4374C11.0498 34.8154 13.7883 37.5539 17.1663 37.5539H31.0304C34.4084 37.5539 37.1469 34.8154 37.1469 31.4374V17.5733C37.1469 14.1952 34.4084 11.4568 31.0304 11.4568Z" fill="url(#paint1_radial_516_177)"/>
<path d="M24.0994 14.311C21.3309 14.311 20.9833 14.3232 19.896 14.3726C18.8108 14.4224 18.0699 14.5941 17.4218 14.8462C16.7512 15.1066 16.1825 15.4549 15.6159 16.0217C15.0488 16.5884 14.7005 17.1571 14.4393 17.8274C14.1865 18.4758 14.0145 19.2169 13.9657 20.3016C13.917 21.3891 13.9043 21.7367 13.9043 24.5053C13.9043 27.2739 13.9165 27.6203 13.9659 28.7077C14.0158 29.7929 14.1876 30.5337 14.4395 31.1819C14.7001 31.8525 15.0484 32.4212 15.6152 32.9878C16.1817 33.5549 16.7504 33.904 17.4205 34.1644C18.0691 34.4165 18.81 34.5883 19.8951 34.638C20.9825 34.6875 21.3297 34.6996 24.0982 34.6996C26.867 34.6996 27.2134 34.6875 28.3007 34.638C29.386 34.5883 30.1276 34.4165 30.7763 34.1644C31.4465 33.904 32.0145 33.5549 32.5808 32.9878C33.1479 32.4212 33.4962 31.8525 33.7575 31.1822C34.008 30.5337 34.1801 29.7927 34.2311 28.7079C34.2799 27.6206 34.2926 27.2739 34.2926 24.5053C34.2926 21.7367 34.2799 21.3893 34.2311 20.3018C34.1801 19.2166 34.008 18.4759 33.7575 17.8277C33.4962 17.1571 33.1479 16.5884 32.5808 16.0217C32.0138 15.4547 31.4467 15.1064 30.7757 14.8463C30.1258 14.5941 29.3846 14.4223 28.2993 14.3726C27.2119 14.3232 26.8657 14.311 24.0962 14.311H24.0994ZM23.1849 16.1481C23.4563 16.1477 23.7592 16.1481 24.0994 16.1481C26.8213 16.1481 27.1439 16.1579 28.2188 16.2067C29.2127 16.2522 29.7522 16.4183 30.1115 16.5578C30.5873 16.7425 30.9264 16.9635 31.283 17.3204C31.6398 17.6772 31.8606 18.0169 32.0459 18.4927C32.1854 18.8515 32.3517 19.391 32.3969 20.3849C32.4458 21.4596 32.4564 21.7823 32.4564 24.503C32.4564 27.2236 32.4458 27.5464 32.3969 28.621C32.3515 29.6149 32.1854 30.1544 32.0459 30.5134C31.8611 30.9891 31.6398 31.3279 31.283 31.6845C30.9262 32.0413 30.5875 32.2621 30.1115 32.4469C29.7526 32.5871 29.2127 32.7527 28.2188 32.7982C27.1441 32.847 26.8213 32.8576 24.0994 32.8576C21.3773 32.8576 21.0547 32.847 19.9801 32.7982C18.9862 32.7523 18.4467 32.5862 18.0871 32.4467C17.6114 32.2619 17.2715 32.041 16.9147 31.6843C16.5579 31.3275 16.3371 30.9885 16.1519 30.5125C16.0124 30.1536 15.8461 29.6141 15.8008 28.6202C15.752 27.5455 15.7422 27.2228 15.7422 24.5004C15.7422 21.7782 15.752 21.457 15.8008 20.3824C15.8463 19.3884 16.0124 18.849 16.1519 18.4896C16.3367 18.0139 16.5579 17.6741 16.9148 17.3173C17.2716 16.9605 17.6114 16.7396 18.0872 16.5545C18.4465 16.4143 18.9862 16.2486 19.9801 16.203C20.9205 16.1605 21.285 16.1477 23.1849 16.1456V16.1481ZM29.541 17.8408C28.8657 17.8408 28.3177 18.3882 28.3177 19.0637C28.3177 19.739 28.8657 20.287 29.541 20.287C30.2164 20.287 30.7643 19.739 30.7643 19.0637C30.7643 18.3883 30.2164 17.8404 29.541 17.8404V17.8408ZM24.0994 19.2701C21.2083 19.2701 18.8643 21.6141 18.8643 24.5053C18.8643 27.3965 21.2083 29.7394 24.0994 29.7394C26.9906 29.7394 29.3338 27.3965 29.3338 24.5053C29.3338 21.6142 26.9904 19.2701 24.0992 19.2701H24.0994ZM24.0994 21.1072C25.976 21.1072 27.4975 22.6285 27.4975 24.5053C27.4975 26.382 25.976 27.9034 24.0994 27.9034C22.2226 27.9034 20.7014 26.382 20.7014 24.5053C20.7014 22.6285 22.2226 21.1072 24.0994 21.1072Z" fill="white"/>
</g>
<rect x="1.10769" y="1.51491" width="45.9806" height="45.9806" rx="13.0485" stroke="black" stroke-width="1.24272"/>
<defs>
<radialGradient id="paint0_radial_516_177" cx="0" cy="0" r="1" gradientUnits="userSpaceOnUse" gradientTransform="translate(17.9818 39.5639) rotate(-90) scale(25.8642 24.0557)">
<stop stop-color="#FFDD55"/>
<stop offset="0.1" stop-color="#FFDD55"/>
<stop offset="0.5" stop-color="#FF543E"/>
<stop offset="1" stop-color="#C837AB"/>
</radialGradient>
<radialGradient id="paint1_radial_516_177" cx="0" cy="0" r="1" gradientUnits="userSpaceOnUse" gradientTransform="translate(6.67844 13.3367) rotate(78.681) scale(11.5614 47.6565)">
<stop stop-color="#3771C8"/>
<stop offset="0.128" stop-color="#3771C8"/>
<stop offset="1" stop-color="#6600FF" stop-opacity="0"/>
</radialGradient>
<clipPath id="clip0_516_177">
<rect width="26.0971" height="26.0971" fill="white" transform="translate(11.0498 11.4565)"/>
</clipPath>
</defs>
</svg>
