<svg width="49" height="49" viewBox="0 0 49 49" fill="none" xmlns="http://www.w3.org/2000/svg">
<rect x="1.42702" y="1.51467" width="45.9806" height="45.9806" rx="13.0485" stroke="black" stroke-width="1.24272"/>
<g clip-path="url(#clip0_516_189)">
<path d="M31.6791 10.835H17.1548C13.6159 10.835 10.7471 13.7038 10.7471 17.2427V31.767C10.7471 35.3059 13.6159 38.1748 17.1548 38.1748H31.6791C35.218 38.1748 38.0869 35.3059 38.0869 31.767V17.2427C38.0869 13.7038 35.218 10.835 31.6791 10.835Z" fill="white"/>
<path d="M31.6791 10.835H17.1548C13.6159 10.835 10.7471 13.7038 10.7471 17.2427V31.767C10.7471 35.3059 13.6159 38.1748 17.1548 38.1748H31.6791C35.218 38.1748 38.0869 35.3059 38.0869 31.767V17.2427C38.0869 13.7038 35.218 10.835 31.6791 10.835Z" fill="#0A66C2"/>
<path d="M30.4743 34.083H33.6002C33.7135 34.083 33.8221 34.038 33.9022 33.9579C33.9823 33.8778 34.0273 33.7692 34.0274 33.6559L34.029 27.0514C34.029 23.5994 33.2851 20.9461 29.2511 20.9461C27.7176 20.8891 26.2715 21.6796 25.4911 22.9996C25.4873 23.006 25.4815 23.011 25.4746 23.0138C25.4677 23.0166 25.4601 23.017 25.4529 23.0151C25.4457 23.0131 25.4393 23.0089 25.4347 23.003C25.4302 22.9971 25.4277 22.9898 25.4276 22.9824V21.692C25.4276 21.5787 25.3826 21.47 25.3025 21.3899C25.2224 21.3098 25.1137 21.2648 25.0004 21.2648H22.0339C21.9206 21.2648 21.812 21.3098 21.7319 21.3899C21.6518 21.47 21.6068 21.5787 21.6068 21.692V33.6553C21.6068 33.7685 21.6518 33.8772 21.7319 33.9573C21.812 34.0374 21.9206 34.0824 22.0339 34.0824H25.1597C25.273 34.0824 25.3816 34.0374 25.4617 33.9573C25.5418 33.8772 25.5868 33.7685 25.5868 33.6553V27.7416C25.5868 26.0695 25.904 24.4502 27.977 24.4502C30.0206 24.4502 30.0471 26.3635 30.0471 27.8499V33.6558C30.0471 33.7691 30.0921 33.8777 30.1722 33.9579C30.2523 34.038 30.361 34.083 30.4743 34.083ZM14.8057 17.2031C14.8057 18.4701 15.8487 19.5127 17.1159 19.5127C18.3827 19.5126 19.4251 18.4694 19.4251 17.2026C19.4249 15.9357 18.3824 14.8933 17.1155 14.8933C15.8482 14.8933 14.8057 15.9361 14.8057 17.2031ZM15.5489 34.083H18.6787C18.792 34.083 18.9007 34.038 18.9808 33.9579C19.0609 33.8777 19.1059 33.7691 19.1059 33.6558V21.692C19.1059 21.5787 19.0609 21.47 18.9808 21.3899C18.9007 21.3098 18.792 21.2648 18.6787 21.2648H15.5489C15.4356 21.2648 15.3269 21.3098 15.2468 21.3899C15.1667 21.47 15.1217 21.5787 15.1217 21.692V33.6558C15.1217 33.7691 15.1667 33.8777 15.2468 33.9579C15.3269 34.038 15.4356 34.083 15.5489 34.083Z" fill="white"/>
</g>
<defs>
<clipPath id="clip0_516_189">
<rect width="27.3398" height="27.3398" fill="white" transform="translate(10.748 10.8352)"/>
</clipPath>
</defs>
</svg>
