<svg width="24" height="24" viewBox="0 0 24 24" fill="none" xmlns="http://www.w3.org/2000/svg">
<path d="M21.3618 9.67255L21.3472 9.6872V9.70791V12.1746C21.3456 13.5307 20.8062 14.8309 19.8473 15.7898C18.8884 16.7487 17.5882 17.2881 16.2321 17.2897H3.74582L5.72123 15.3142L5.75658 15.2789L5.72122 15.2435L4.67779 14.2001L4.64244 14.1647L4.60708 14.2001L2.54627 16.2608L2.34267 16.4644L2.37802 16.4998L2.34267 16.4644L0.794722 18.0124L0.761387 18.0457L0.792707 18.081L4.20634 21.9214L4.23956 21.9587L4.27693 21.9255L5.37995 20.9451L5.41732 20.9119L5.3841 20.8745L3.59824 18.8654H16.2321C19.9214 18.8654 22.9229 15.8639 22.9229 12.1746V8.23218V8.11147L22.8375 8.19682L21.3618 9.67255Z" fill="black" stroke="black" stroke-width="0.1"/>
<path d="M7.37716 6.69051H19.8634L17.888 8.66597L17.8526 8.70132L17.888 8.73668L18.9314 9.78011L18.9668 9.81546L19.0021 9.78011L21.0629 7.71935L21.2528 7.52953L21.2202 7.49689L21.2528 7.52953L22.8145 5.96779L22.8478 5.93446L22.8165 5.89922L19.4029 2.05882L19.3697 2.02145L19.3323 2.05467L18.2293 3.03511L18.1919 3.06833L18.2251 3.1057L20.011 5.11478H7.3771C3.68784 5.11478 0.686328 8.1163 0.686328 11.8056V15.7618V15.8825L0.771683 15.7971L2.24741 14.3214L2.26206 14.3067V14.286V11.8056C2.26359 10.4495 2.803 9.14932 3.76193 8.19039C4.72087 7.23145 6.02102 6.69205 7.37716 6.69051Z" fill="black" stroke="black" stroke-width="0.1"/>
</svg>
