<svg width="25" height="24" viewBox="0 0 25 24" fill="none" xmlns="http://www.w3.org/2000/svg">
<path d="M22.1159 10.0282V12.4949C22.1144 13.8643 21.5697 15.1772 20.6014 16.1455C19.6331 17.1138 18.3202 17.6584 16.9509 17.66H4.34386L6.40462 15.5992L5.36119 14.5558L3.30038 16.6165L3.09677 16.8201L1.54883 18.3681L4.96246 22.2085L6.06548 21.228L4.20565 19.1357H16.9509C20.6125 19.1357 23.5916 16.1566 23.5916 12.4949V8.55249L22.1159 10.0282Z" fill="#221B1B"/>
<path d="M2.93178 12.1259C2.93333 10.7565 3.478 9.44364 4.4463 8.47534C5.4146 7.50705 6.72745 6.96237 8.09683 6.96082H20.7038L18.6431 9.02163L19.6865 10.0651L21.7473 8.0043L21.9372 7.81449L23.4989 6.25275L20.0852 2.41235L18.9822 3.39279L20.842 5.4851H8.09683C4.43518 5.4851 1.45605 8.46422 1.45605 12.1259V16.0821L2.93178 14.6063V12.1259Z" fill="#221B1B"/>
</svg>
