<svg width="48" height="48" viewBox="0 0 48 48" fill="none" xmlns="http://www.w3.org/2000/svg">
<g style="mix-blend-mode:darken">
<path d="M34.7542 25.4396V33.1989C34.7322 34.1011 34.2947 34.5995 33.3911 34.6746C32.3542 34.76 31.3122 34.8144 30.2714 34.8765C28.1743 35.006 26.0759 35.1328 23.9788 35.2571C22.1212 35.3671 20.2636 35.4642 18.4086 35.5898C17.5879 35.6429 16.9419 35.384 16.4876 34.6798C16.3529 34.4713 16.1808 34.2836 16.028 34.0843C15.2513 33.0823 14.4811 32.0778 13.7005 31.0811C13.1767 30.4373 12.8983 29.6286 12.9148 28.7989C12.9406 24.3846 12.9251 19.973 12.9277 15.56C12.9277 15.393 12.9406 15.2273 12.9665 15.0629C13.0856 14.4157 13.4869 14.0144 14.1419 13.9523C15.2138 13.8513 16.3025 13.7814 17.3834 13.6998L22.5484 13.3192C24.2028 13.1989 25.8571 13.0836 27.5115 12.9529C28.3408 12.8854 29.1653 13.1301 29.8235 13.639C31.2811 14.6966 32.762 15.7192 34.2403 16.751C34.4114 16.8607 34.55 17.0143 34.6418 17.1957C34.7335 17.3771 34.775 17.5798 34.762 17.7827C34.7478 20.3341 34.7542 22.8869 34.7542 25.4396ZM33.25 25.5393V18.9322C33.25 18.2953 33.0261 18.0752 32.4086 18.1115L27.0364 18.417L20.4474 18.8027C19.6733 18.848 18.8992 18.8934 18.1251 18.9451C17.7148 18.9736 17.5283 19.1548 17.4675 19.5574C17.452 19.6739 17.4455 19.7904 17.4481 19.9069V32.6707C17.4481 33.6636 17.7122 33.9121 18.7089 33.8539C19.7057 33.7956 20.7012 33.7309 21.7083 33.6726L32.3737 33.0603C32.9458 33.028 33.206 32.7756 33.2513 32.2073C33.2591 32.1076 33.2513 32.0079 33.2513 31.9018L33.25 25.5393ZM31.6358 16.5866L31.6707 16.5205C31.5924 16.4247 31.5057 16.3359 31.4118 16.2552C30.705 15.7387 29.9905 15.2325 29.285 14.7238C28.8228 14.3704 28.2494 14.193 27.6682 14.2254C26.5109 14.2953 25.3562 14.3872 24.1989 14.4713L16.7633 15.0112C16.23 15.05 15.6902 15.0914 15.1698 15.1535C15.1115 15.165 15.0566 15.1898 15.0094 15.2259C14.9623 15.2621 14.9241 15.3086 14.8979 15.362C14.8759 15.4254 14.9808 15.5678 15.0623 15.6338C15.6449 16.1037 16.2377 16.5658 16.8254 17.0293C17.1426 17.2934 17.5478 17.4306 17.9594 17.4137C18.1601 17.4047 18.3607 17.4137 18.5601 17.3956L23.9555 17.0642L31.1245 16.6422C31.2953 16.6228 31.4649 16.6034 31.6358 16.5866Z" fill="#2A2A2A"/>
<path d="M28.4044 27.749V21.7166C28.0782 21.6778 27.7662 21.6325 27.4516 21.6092C27.2795 21.5962 27.2393 21.5186 27.2575 21.3671C27.2747 21.2031 27.3471 21.0497 27.4628 20.9322C27.5785 20.8146 27.7306 20.7398 27.8944 20.7199C28.9338 20.6422 29.9733 20.5891 31.0076 20.527C31.1617 21.0409 31.0076 21.2933 30.5157 21.3904C29.9733 21.503 29.9733 21.503 29.9733 22.0532V30.914C29.9733 31.1199 29.919 31.2454 29.7248 31.3063C29.3825 31.4341 29.0338 31.5443 28.6801 31.6364C28.1118 31.7555 27.6083 31.5975 27.2704 31.1069C26.8 30.429 26.3404 29.7437 25.8918 29.0512C24.851 27.4409 23.8232 25.8241 22.7889 24.2098C22.7682 24.1762 22.7397 24.1438 22.6814 24.0635C22.6685 24.1749 22.6568 24.2383 22.6568 24.3043V30.3367C22.6568 30.514 22.7138 30.5865 22.8847 30.6189C23.2678 30.694 23.6497 30.7859 24.0238 30.87C24.0172 31.0578 23.9428 31.2369 23.8142 31.374C23.6857 31.5111 23.5118 31.597 23.3248 31.6156C23.0109 31.6577 22.6951 31.6837 22.3785 31.6933C21.6122 31.7399 20.8458 31.7762 20.0808 31.8305C19.8568 31.8461 19.8115 31.7529 19.8504 31.5703C19.8615 31.4607 19.9069 31.3573 19.9801 31.2748C20.0533 31.1923 20.1505 31.1349 20.2581 31.1108C20.4989 31.0525 20.7371 30.9762 20.9753 30.9089V22.2487L19.9021 22.1529C19.8663 22.0411 19.8566 21.9227 19.8738 21.8066C19.891 21.6905 19.9346 21.58 20.0012 21.4834C20.0679 21.3869 20.1558 21.3069 20.2583 21.2497C20.3607 21.1925 20.4749 21.1596 20.5921 21.1535C21.5306 21.0784 22.4756 21.05 23.4115 20.9438C23.8115 20.8998 23.9979 21.0474 24.1986 21.3568C25.5228 23.3969 26.8652 25.4292 28.2025 27.4629L28.4044 27.749Z" fill="#2A2A2A"/>
</g>
<rect x="1.10866" y="1.13613" width="45.9806" height="45.9806" rx="13.0485" stroke="black" stroke-width="1.24272"/>
</svg>
