<svg width="13" height="13" viewBox="0 0 13 13" fill="none" xmlns="http://www.w3.org/2000/svg">
<path d="M6.5 0.9286C7.62022 0.928565 8.71444 1.26622 9.63985 1.8975C10.5653 2.52879 11.2789 3.42437 11.6876 4.46738C12.0963 5.51039 12.1811 6.65238 11.9309 7.74431C11.6807 8.83624 11.1072 9.82739 10.2851 10.5884C9.46308 11.3494 8.43072 11.845 7.32278 12.0104C6.21483 12.1758 5.08275 12.0033 4.07429 11.5156C3.06583 11.0278 2.22783 10.2474 1.66965 9.27613C1.11146 8.30488 0.859028 7.18792 0.945286 6.07102C0.949919 6.01017 0.942523 5.94901 0.923518 5.89102C0.904513 5.83303 0.874272 5.77935 0.834522 5.73304C0.794772 5.68674 0.746291 5.64872 0.691847 5.62115C0.637403 5.59359 0.578063 5.57701 0.517214 5.57238C0.456365 5.56774 0.3952 5.57514 0.337209 5.59415C0.279219 5.61315 0.22554 5.64339 0.179236 5.68314C0.132933 5.72289 0.0949125 5.77137 0.0673455 5.82582C0.0397786 5.88026 0.0232052 5.9396 0.0185714 6.00045C0.00619046 6.16635 0 6.33288 0 6.50002C4.41545e-06 8.00667 0.523407 9.46653 1.48071 10.63C2.43801 11.7934 3.76974 12.5882 5.24819 12.8783C6.72665 13.1685 8.25998 12.936 9.586 12.2207C10.912 11.5054 11.9484 10.3516 12.5178 8.95676C13.0873 7.56187 13.1545 6.01247 12.7079 4.57351C12.2614 3.13456 11.3288 1.89541 10.0697 1.06797C8.81062 0.240536 7.30317 -0.123804 5.80515 0.0372572C4.30713 0.198318 2.91158 0.874774 1.85714 1.95096V0.464315C1.85714 0.341179 1.80823 0.223086 1.72116 0.136016C1.63409 0.0489458 1.51599 3.00696e-05 1.39286 3.00696e-05C1.26972 3.00696e-05 1.15163 0.0489458 1.06456 0.136016C0.977487 0.223086 0.928571 0.341179 0.928571 0.464315V3.25002C0.928571 3.37316 0.977487 3.49125 1.06456 3.57832C1.15163 3.66539 1.26972 3.71431 1.39286 3.71431H4.17857C4.30171 3.71431 4.4198 3.66539 4.50687 3.57832C4.59394 3.49125 4.64286 3.37316 4.64286 3.25002C4.64286 3.12689 4.59394 3.0088 4.50687 2.92173C4.4198 2.83466 4.30171 2.78574 4.17857 2.78574H2.34743C2.86925 2.20056 3.50908 1.73253 4.22482 1.41243C4.94055 1.09234 5.71595 0.927445 6.5 0.9286ZM6.5 3.25002C6.5 3.12689 6.45108 3.0088 6.36401 2.92173C6.27694 2.83466 6.15885 2.78574 6.03571 2.78574C5.91258 2.78574 5.79448 2.83466 5.70741 2.92173C5.62034 3.0088 5.57143 3.12689 5.57143 3.25002V6.9643C5.57143 7.08744 5.62034 7.20553 5.70741 7.2926C5.79448 7.37967 5.91258 7.42859 6.03571 7.42859H8.82143C8.94456 7.42859 9.06266 7.37967 9.14973 7.2926C9.2368 7.20553 9.28571 7.08744 9.28571 6.9643C9.28571 6.84117 9.2368 6.72308 9.14973 6.636C9.06266 6.54893 8.94456 6.50002 8.82143 6.50002H6.5V3.25002Z" fill="black" fill-opacity="0.4"/>
</svg>
