<svg width="20" height="20" viewBox="0 0 20 20" fill="none" xmlns="http://www.w3.org/2000/svg">
<g clip-path="url(#clip0_1338_113)">
<path d="M3 9.95504L6.7416 9.95504M6.7416 9.95504C6.75096 10.4912 6.86584 11.0203 7.07967 11.5121C7.2935 12.0039 7.6021 12.4487 7.98786 12.8212C8.37361 13.1937 8.82896 13.4866 9.3279 13.6832C9.82684 13.8797 10.3596 13.976 10.8958 13.9667C11.432 13.9573 11.9611 13.8425 12.4528 13.6286C12.9446 13.4148 13.3895 13.1062 13.762 12.7204C14.1345 12.3347 14.4274 11.8793 14.6239 11.3804C14.8205 10.8814 14.9168 10.3487 14.9074 9.8125M6.7416 9.95504C6.7227 8.87218 7.13474 7.82616 7.88707 7.0471C8.6394 6.26804 9.6704 5.81975 10.7533 5.80085C11.8361 5.78195 12.8821 6.19398 13.6612 6.94631C14.4403 7.69864 14.8885 8.72964 14.9074 9.8125M14.9074 9.8125L18.2568 9.8125" stroke="black" stroke-opacity="0.4" stroke-width="1.5" stroke-linecap="round" stroke-linejoin="round"/>
</g>
<defs>
<clipPath id="clip0_1338_113">
<rect width="14" height="14" fill="white" transform="translate(19.8975 9.72522) rotate(134)"/>
</clipPath>
</defs>
</svg>
