<svg width="17" height="11" viewBox="0 0 17 11" fill="none" xmlns="http://www.w3.org/2000/svg">
<path d="M1 5.69747L4.7416 5.69747M4.7416 5.69747C4.75096 6.23364 4.86584 6.76273 5.07967 7.25451C5.2935 7.74629 5.6021 8.19114 5.98786 8.56365C6.37361 8.93617 6.82896 9.22906 7.3279 9.4256C7.82684 9.62214 8.35961 9.71848 8.89579 9.70912C9.43197 9.69976 9.96105 9.58488 10.4528 9.37105C10.9446 9.15722 11.3895 8.84862 11.762 8.46287C12.1345 8.07711 12.4274 7.62177 12.6239 7.12282C12.8205 6.62388 12.9168 6.09111 12.9074 5.55493M4.7416 5.69747C4.7227 4.61461 5.13474 3.56859 5.88707 2.78953C6.6394 2.01047 7.6704 1.56218 8.75326 1.54328C9.83611 1.52438 10.8821 1.93641 11.6612 2.68875C12.4403 3.44108 12.8885 4.47207 12.9074 5.55493M12.9074 5.55493L16.2568 5.55493" stroke="white" stroke-opacity="0.6" stroke-width="1.5" stroke-linecap="round" stroke-linejoin="round"/>
</svg>
