<svg width="48" height="48" viewBox="0 0 48 48" fill="none" xmlns="http://www.w3.org/2000/svg">
<rect x="1.10769" y="0.621603" width="45.9806" height="45.9806" rx="13.0485" stroke="black" stroke-width="1.24272"/>
<g clip-path="url(#clip0_516_174)">
<path d="M33.2978 14.3555C32.1 13.149 30.6744 12.1925 29.1039 11.5415C27.5334 10.8905 25.8492 10.558 24.1491 10.5633C17.023 10.5633 11.2229 16.3634 11.2229 23.4944C11.2229 25.773 11.8199 28.001 12.9502 29.9583L11.1152 36.6604L17.9706 34.8613C19.8658 35.8937 21.9893 36.4353 24.1475 36.4369H24.1524C31.2785 36.4369 37.0835 30.6368 37.0835 23.5058C37.0878 21.8063 36.7553 20.1228 36.1053 18.5525C35.4552 16.9822 34.5004 15.5563 33.2961 14.3572L33.2978 14.3555ZM24.1524 34.2546C22.2263 34.2549 20.3357 33.7372 18.6785 32.7556L18.2854 32.5207L14.2175 33.5858L15.3038 29.6207L15.0494 29.2129C13.9692 27.5016 13.3984 25.5181 13.4036 23.4944C13.4071 20.6434 14.5415 17.9103 16.5579 15.8948C18.5743 13.8794 21.3079 12.7462 24.1589 12.744C27.0279 12.744 29.7306 13.8662 31.758 15.8936C32.7585 16.8905 33.5516 18.0758 34.0913 19.3809C34.6311 20.6861 34.9069 22.0853 34.9027 23.4977C34.8978 29.4299 30.0764 34.2546 24.1524 34.2546ZM30.0454 26.202C29.7241 26.0389 28.1338 25.2592 27.8386 25.1516C27.5433 25.0439 27.328 24.9885 27.1095 25.3147C26.8958 25.636 26.2744 26.3651 26.0852 26.5836C25.896 26.7973 25.7084 26.8283 25.3871 26.6652C25.0658 26.5021 24.0202 26.1612 22.7872 25.0602C21.8281 24.2039 21.1773 23.1437 20.9881 22.8224C20.7989 22.5011 20.9669 22.3233 21.1316 22.1651C21.28 22.0215 21.4529 21.7883 21.616 21.5991C21.7792 21.4099 21.8297 21.2778 21.9374 21.0592C22.045 20.8455 21.9928 20.6563 21.9113 20.4932C21.8297 20.3301 21.1822 18.7398 20.918 18.0923C20.6586 17.4595 20.3879 17.5475 20.1889 17.5361C19.9997 17.5263 19.786 17.5263 19.5723 17.5263C19.3587 17.5263 19.0063 17.6079 18.7111 17.9292C18.4159 18.2505 17.5792 19.0351 17.5792 20.6254C17.5792 22.2156 18.7356 23.7505 18.8987 23.969C19.0618 24.1827 21.1773 27.4497 24.4182 28.8476C25.1881 29.1787 25.79 29.3777 26.2581 29.531C27.0328 29.7756 27.7358 29.7398 28.292 29.6582C28.9134 29.5669 30.2036 28.8786 30.4744 28.1234C30.7451 27.3682 30.7451 26.7223 30.6636 26.5885C30.5869 26.445 30.3733 26.3651 30.047 26.2003L30.0454 26.202Z" fill="#4ECB71"/>
</g>
<defs>
<clipPath id="clip0_516_174">
<rect width="26.0971" height="26.0971" fill="white" transform="translate(11.0488 10.5632)"/>
</clipPath>
</defs>
</svg>
